<?xml version="1.0" encoding="UTF-8"?>
<svg xmlns="http://www.w3.org/2000/svg" xmlns:xlink="http://www.w3.org/1999/xlink" viewBox="0 0 441.96 442.5">
  <defs>
    <style>
      .cls-1 {
        fill: url(#linear-gradient-6);
      }

      .cls-1, .cls-2, .cls-3, .cls-4, .cls-5, .cls-6, .cls-7 {
        stroke-width: 0px;
      }

      .cls-8 {
        isolation: isolate;
      }

      .cls-9 {
        mix-blend-mode: screen;
        opacity: .6;
      }

      .cls-2 {
        fill: url(#linear-gradient);
      }

      .cls-2, .cls-3, .cls-5, .cls-7 {
        fill-rule: evenodd;
      }

      .cls-3 {
        fill: url(#linear-gradient-2);
      }

      .cls-4 {
        fill: url(#linear-gradient-3);
      }

      .cls-5 {
        fill: url(#linear-gradient-5);
      }

      .cls-6 {
        fill: #fff;
      }

      .cls-7 {
        fill: url(#linear-gradient-4);
      }
    </style>
    <linearGradient id="linear-gradient" x1="303.88" y1="89.48" x2="313.26" y2="379.84" gradientUnits="userSpaceOnUse">
      <stop offset="0" stop-color="#2d2e85"/>
      <stop offset=".03" stop-color="#293288"/>
      <stop offset=".25" stop-color="#174b9c"/>
      <stop offset=".48" stop-color="#0a5daa"/>
      <stop offset=".73" stop-color="#0268b3"/>
      <stop offset="1" stop-color="#006cb6"/>
    </linearGradient>
    <linearGradient id="linear-gradient-2" x1="91.55" y1="251.85" x2="218" y2="50.97" xlink:href="#linear-gradient"/>
    <linearGradient id="linear-gradient-3" x1="300.84" y1="348.22" x2="60.55" y2="262.86" xlink:href="#linear-gradient"/>
    <linearGradient id="linear-gradient-4" x1="308.28" y1="92.39" x2="317.49" y2="377.43" xlink:href="#linear-gradient"/>
    <linearGradient id="linear-gradient-5" x1="89.97" y1="247.66" x2="213.81" y2="50.93" xlink:href="#linear-gradient"/>
    <linearGradient id="linear-gradient-6" x1="301.73" y1="335.96" x2="66.23" y2="252.31" xlink:href="#linear-gradient"/>
  </defs>
  <g class="cls-8">
    <g id="Camada_2" data-name="Camada 2">
      <g id="Layer_4" data-name="Layer 4">
        <g>
          <path class="cls-6" d="M420.47,169.14l-94.03-94.03s0,0-.01,0l-53.61-53.61c-28.67-28.66-75.55-28.66-104.22,0L18.01,172.28c.03.13.07.26.11.38-25.22,28.86-24.11,73.09,3.38,100.58l146.49,146.49,1.15,1.15c4.38,4.38,9.19,8.06,14.29,11.1,5.6,3.34,17.37,7.94,24.68,9.23-.12.05-.25.1-.37.15,22.94,4.06,47.47-2.73,65.09-20.36l147.65-147.64c28.66-28.66,28.66-75.55,0-104.22Z"/>
          <g>
            <path class="cls-2" d="M326.44,75.11l94.03,94.03c28.66,28.66,28.66,75.55,0,104.22l-147.65,147.64c-17.62,17.63-42.15,24.42-65.09,20.36,35.12-12.61,66.09-41.77,88.91-76.19,27.99-42.19,43.76-92.39,39.91-129.62-3.08-29.7-14.52-37.53-40.14-55.06l-1.64-1.13-75.06-56.02c-8.6-5.89-18.99-12.15-29.64-15.31-6.52-1.92-13.14-2.69-19.51-1.52,29.33-21.35,97.88-39.93,155.89-31.4Z"/>
            <path class="cls-3" d="M18.01,172.28L168.6,21.49c28.67-28.66,75.55-28.66,104.22,0l53.61,53.62c-11.56-2.11-23.44-3.35-35.33-3.78-50.59-1.85-101.65,10.87-131.39,33.6-2.78,2.12-5.24,4.18-7.42,6.22-.31.2-.61.41-.92.62l.11.14c-15.69,15.07-16.42,29.06-17.79,55.97,0,0-1.82,118.52.92,129.23,1.88,7.32,5.01,14.03,10.05,19.16-1.45-.52-2.94-1.08-4.49-1.71-43.74-20.09-107.65-84.65-122.16-142.29Z"/>
            <path class="cls-4" d="M326.63,239.18c-.23-2.23-1.18-8.14-1.36-9.01-1.25,7.19-5,13.52-10.09,19.07-8.04,8.77-12.65,12.17-22.56,17.32l-89.71,46.66c-27.54,14.32-39.84,20.74-67.48,9.46-34.66-14.15-101.21-82.11-116.89-150.51-25.67,28.85-24.69,73.43,2.95,101.08l146.49,146.49,1.15,1.15c4.38,4.38,9.19,8.06,14.29,11.1,5.64,3.36,17.54,8,24.84,9.26,36.66-11.03,62.13-42.56,85.8-78.25,27.54-41.51,36.35-87.4,32.58-123.82Z"/>
            <g class="cls-9">
              <path class="cls-7" d="M221.72,120.65l51.05,38.1c1.06-.01,2.11-.08,3.18-.08,62.44,0,119.84,25.2,162.56,65.77.86-19.06-5.89-38.4-20.41-52.92l-93.23-93.24c-9.08-1.28-18.73-1.92-28.71-1.92-44.9,0-88.4,12.57-113.69,26.61,2.77.36,5.63.97,8.56,1.84,11.97,3.54,23.19,10.69,30.7,15.84Z"/>
            </g>
            <g class="cls-9">
              <path class="cls-5" d="M129.85,210.15c.16-20.61.41-37.92.48-42.43,1.33-26.03,2.09-40.88,16.71-56.11l-.43-.57,2.82-2c.26-.18.52-.36.78-.53,2.21-2.05,4.65-4.09,7.47-6.24,27.83-21.26,75.22-34.47,123.69-34.47,3.29,0,6.58.06,9.87.18,8.64.32,17.18,1.05,25.5,2.19l-46.28-46.29c-13.23-13.23-30.89-20.51-49.73-20.51s-36.5,7.28-49.73,20.51L21.76,173.29c8.3,30.76,31.13,64.29,57.5,91.35,13.96-20.65,31.08-39.04,50.59-54.5Z"/>
            </g>
            <g class="cls-9">
              <path class="cls-1" d="M72.17,275.84c-23.77-26.96-45.64-61.35-55.25-96.33-20.35,27.66-17.79,66.62,6.95,91.36l33.62,33.62c4.24-9.91,9.17-19.46,14.67-28.65Z"/>
            </g>
          </g>
        </g>
      </g>
    </g>
  </g>
</svg>